<!-- Generated by IcoMoon.io -->
<svg 
version="1.1" 
xmlns="http://www.w3.org/2000/svg"
 width="1024" 
 height="1024" 
 viewBox="0 0 1024 1024">
<title>linkedin</title>
<g id="icomoon-ignore">
</g>
<path fill="#000" d="M512 102.4c-225.162 1.387-407.154 184.237-407.154 409.593 0 188.938 127.924 347.997 301.884 395.289l2.87 0.665v-88.747h-51.2c-27.307 0-54.613-13.653-68.267-34.133-10.24-23.893-13.653-64.853-44.373-85.333-10.24-10.24-3.413-17.067 6.827-17.067 20.48 6.827 37.547 20.48 54.613 40.96 17.067 23.893 23.893 27.307 54.613 27.307l58.027-3.413c10.24-30.72 30.72-54.613 54.613-68.267-136.533-13.653-204.8-81.92-204.8-170.667 0-40.96 20.48-81.92 47.787-112.64-6.827-34.133-20.48-98.987 3.413-122.88 61.44 0 102.4 40.96 109.227 51.2 29.517-10.385 63.551-16.385 98.987-16.385s69.469 6 101.142 17.039l-2.155-0.654c10.24-10.24 47.787-51.2 109.227-51.2 23.893 23.893 10.24 92.16 0 122.88 30.72 34.133 47.787 68.267 47.787 109.227 0 92.16-68.267 160.427-201.387 174.080 37.547 20.48 64.853 75.093 64.853 116.053v102.4c159.758-58.296 271.756-208.923 271.756-385.709 0-225.755-182.638-408.853-408.218-409.598h-0.071z"></path>
</svg>
